<svg height="512" viewBox="0 0 24 24" width="512" xmlns="http://www.w3.org/2000/svg">
    <path fill="#ff803b" d="M13.437 2l.384 1.668a1.997 1.997 0 001.164 1.391 6.95 6.95 0 011.514.885 2 2 0 001.828.322l1.615-.515 1.438 2.501L20.134 9.4a1.996 1.996 0 00-.633 1.68 8.676 8.676 0 010 1.84 2 2 0 00.639 1.685l1.245 1.139-1.446 2.503-1.612-.514a2.003 2.003 0 00-1.828.322 6.95 6.95 0 01-1.514.885 2.003 2.003 0 00-1.165 1.392L13.437 22h-2.875l-.384-1.668a2 2 0 00-1.165-1.392 6.91 6.91 0 01-1.514-.885 1.998 1.998 0 00-1.826-.321l-1.615.515-1.438-2.5L3.866 14.6c.465-.428.7-1.051.633-1.68a8.676 8.676 0 010-1.84 2 2 0 00-.639-1.685l-1.245-1.14 1.446-2.503 1.612.514a2.007 2.007 0 001.828-.322 6.95 6.95 0 011.514-.885 2 2 0 001.164-1.391L10.563 2zm6.691 3.692h.005zM13.66 0h-3.32c-.8 0-1.51.57-1.68 1.35l-.43 1.87c-.68.29-1.34.67-1.95 1.14l-1.82-.58a1.75 1.75 0 00-.518-.078c-.613 0-1.198.319-1.502.858L.77 7.45c-.39.7-.26 1.57.33 2.13l1.41 1.29a10.836 10.836 0 000 2.26l-1.41 1.3a1.73 1.73 0 00-.32 2.13l1.65 2.87a1.74 1.74 0 001.513.868c.172 0 .346-.025.517-.078l1.82-.58c.61.47 1.27.85 1.95 1.14l.43 1.87c.17.78.88 1.35 1.68 1.35h3.32c.8 0 1.51-.57 1.68-1.35l.43-1.87c.68-.29 1.34-.67 1.95-1.14l1.82.58c.171.053.346.078.518.078.613 0 1.198-.319 1.502-.858l1.67-2.89c.39-.7.26-1.57-.33-2.12v-.01l-1.41-1.29a10.836 10.836 0 000-2.26l1.41-1.3c.59-.55.72-1.42.32-2.13l-1.65-2.87a1.74 1.74 0 00-1.513-.868c-.172 0-.346.025-.517.078l-1.82.58c-.61-.47-1.27-.85-1.95-1.14l-.43-1.87C15.17.57 14.46 0 13.66 0z"/>
    <path fill="#ff803b" d="M9.25 13.69c.31.28.33.75.06 1.06-.15.17-.35.25-.56.25-.18 0-.36-.06-.5-.19l-2.5-2.25a.75.75 0 010-1.12l2.5-2.25c.31-.27.78-.25 1.06.06.27.31.25.78-.06 1.06L7.37 12zM13.48 8.92l-1.5 6.5c-.084.369-.42.64-.9.56-.4-.09-.65-.5-.56-.9l1.5-6.5c.09-.4.5-.65.9-.56s.65.5.56.9zM18.25 12.56l-2.5 2.25c-.14.13-.32.19-.5.19-.21 0-.41-.08-.56-.25a.756.756 0 01.06-1.06L16.63 12l-1.88-1.69a.756.756 0 01-.06-1.06c.28-.31.75-.33 1.06-.06l2.5 2.25a.75.75 0 010 1.12z"/>
</svg>